<svg width="425.212109375px" height="122px" xmlns="http://www.w3.org/2000/svg" viewBox="37.393945312499994 14 425.212109375 122" style="background: rgba(52, 107, 33, 0);" preserveAspectRatio="xMidYMid"><defs><filter id="editing-extrusion" x="-100%" y="-100%" width="300%" height="300%"><feFlood result="color1" flood-color="#b4e76c"></feFlood><feConvolveMatrix order="8,8" divisor="1" kernelMatrix="1 0 0 0 0 0 0 0 0 1 0 0 0 0 0 0 0 0 1 0 0 0 0 0 0 0 0 1 0 0 0 0 0 0 0 0 1 0 0 0 0 0 0 0 0 1 0 0 0 0 0 0 0 0 1 0 0 0 0 0 0 0 0 1" in="SourceAlpha" result="extrude"></feConvolveMatrix><feComposite in="color1" in2="extrude" result="comp-extrude" operator="in"></feComposite><feOffset dx="4" dy="4" in="comp-extrude" result="offset-extrude"></feOffset><feMerge><feMergeNode in="offset-extrude"></feMergeNode><feMergeNode in="SourceGraphic"></feMergeNode></feMerge></filter></defs><g filter="url(#editing-extrusion)"><g transform="translate(101.95201566815376, 99)"><path d="M0.45-0.32L0.45-0.32L8.51-42.24L8.51-42.24Q16.06-42.88 20.93-42.88L20.93-42.88L20.93-42.88Q25.79-42.88 28.93-42.46L28.93-42.46L28.93-42.46Q32.06-42.05 34.18-40.96L34.18-40.96L34.18-40.96Q38.40-38.91 38.40-33.28L38.40-33.28L38.40-33.28Q38.40-30.02 35.58-27.26L35.58-27.26L35.58-27.26Q32.96-24.77 30.08-24.19L30.08-24.19L30.08-24.19Q33.15-23.68 35.33-21.38L35.33-21.38L35.33-21.38Q37.63-18.94 37.63-15.17L37.63-15.17L37.63-15.17Q37.63-7.87 32.19-3.62L32.19-3.62L32.19-3.62Q26.75 0.64 16.06 0.64L16.06 0.64L16.06 0.64Q8.70 0.64 0.45-0.32ZM17.86-20.61L14.66-4.03L14.66-4.03Q15.23-3.97 15.36-3.97L15.36-3.97L15.94-3.97L15.94-3.97Q21.18-3.97 23.42-7.42L23.42-7.42L23.42-7.42Q25.09-10.11 25.09-15.04L25.09-15.04L25.09-15.04Q25.09-17.66 23.39-19.07L23.39-19.07L23.39-19.07Q21.70-20.48 17.86-20.61L17.86-20.61ZM27.58-33.22L27.58-33.22L27.58-33.22Q27.58-38.53 22.46-38.53L22.46-38.53L21.89-38.53L21.89-38.53Q21.63-38.53 21.25-38.46L21.25-38.46L18.69-24.96L19.33-24.96L19.33-24.96Q27.58-25.15 27.58-33.22ZM55.81 1.28L55.81 1.28L55.81 1.28Q41.73 1.28 41.73-11.97L41.73-11.97L41.73-11.97Q41.73-21.38 46.91-27.46L46.91-27.46L46.91-27.46Q52.42-33.92 61.95-33.92L61.95-33.92L61.95-33.92Q68.86-33.92 72.38-30.72L72.38-30.72L72.38-30.72Q75.90-27.52 75.90-20.80L75.90-20.80L75.90-20.80Q75.90-10.56 70.40-4.61L70.40-4.61L70.40-4.61Q65.02 1.28 55.81 1.28ZM57.47-26.56L57.47-26.56L57.47-26.56Q56.70-24.83 56.10-22.24L56.10-22.24L56.10-22.24Q55.49-19.65 54.72-15.55L54.72-15.55L54.72-15.55Q53.95-11.46 53.95-6.40L53.95-6.40L53.95-6.40Q53.95-4.74 54.50-3.65L54.50-3.65L54.50-3.65Q55.04-2.56 56.51-2.56L56.51-2.56L56.51-2.56Q57.98-2.56 58.91-3.26L58.91-3.26L58.91-3.26Q59.84-3.97 60.54-5.63L60.54-5.63L60.54-5.63Q61.82-8.58 62.85-14.05L62.85-14.05L62.85-14.05Q63.87-19.52 63.97-21.89L63.97-21.89L63.97-21.89Q64.06-24.26 64.06-26.02L64.06-26.02L64.06-26.02Q64.06-27.78 63.55-28.93L63.55-28.93L63.55-28.93Q63.04-30.08 61.60-30.08L61.60-30.08L61.60-30.08Q60.16-30.08 59.20-29.18L59.20-29.18L59.20-29.18Q58.24-28.29 57.47-26.56ZM80.70-6.40L80.70-6.40L80.70-6.40Q80.70-8.13 81.60-12.48L81.60-12.48L84.99-29.76L81.22-29.76L81.47-31.68L81.47-31.68Q89.15-33.98 96.58-39.62L96.58-39.62L99.65-39.62L98.11-32.64L103.10-32.64L102.53-29.76L97.60-29.76L94.34-12.48L94.34-12.48Q93.50-8.51 93.50-7.17L93.50-7.17L93.50-7.17Q93.50-4.10 96.19-3.46L96.19-3.46L96.19-3.46Q95.55-1.28 93.25 0L93.25 0L93.25 0Q90.94 1.28 87.68 1.28L87.68 1.28L87.68 1.28Q84.42 1.28 82.56-0.77L82.56-0.77L82.56-0.77Q80.70-2.82 80.70-6.40ZM105.31-1.92L105.31-1.92L105.31-1.92Q103.81-3.58 103.14-6.21L103.14-6.21L103.14-6.21Q102.46-8.83 102.46-13.12L102.46-13.12L102.46-13.12Q102.46-17.41 103.94-21.31L103.94-21.31L103.94-21.31Q105.41-25.22 108.10-28.03L108.10-28.03L108.10-28.03Q113.60-33.92 122.69-33.92L122.69-33.92L122.69-33.92Q125.95-33.92 128.32-32.83L128.32-32.83L139.26-33.92L134.53-8.96L134.53-8.96Q134.34-8.19 134.34-6.78L134.34-6.78L134.34-6.78Q134.34-5.38 135.20-4.48L135.20-4.48L135.20-4.48Q136.06-3.58 137.34-3.46L137.34-3.46L137.34-3.46Q136.70-1.28 134.37 0L134.37 0L134.37 0Q132.03 1.28 129.41 1.28L129.41 1.28L129.41 1.28Q126.78 1.28 125.02 0.29L125.02 0.29L125.02 0.29Q123.26-0.70 122.75-2.37L122.75-2.37L122.75-2.37Q121.73-0.77 119.55 0.26L119.55 0.26L119.55 0.26Q117.38 1.28 114.46 1.28L114.46 1.28L114.46 1.28Q111.55 1.28 109.18 0.51L109.18 0.51L109.18 0.51Q106.82-0.26 105.31-1.92ZM118.82-27.90L118.82-27.90L118.82-27.90Q118.08-26.75 117.44-24.80L117.44-24.80L117.44-24.80Q116.80-22.85 115.74-17.63L115.74-17.63L115.74-17.63Q114.69-12.42 114.69-8.70L114.69-8.70L114.69-8.70Q114.69-4.99 115.26-3.90L115.26-3.90L115.26-3.90Q115.84-2.82 116.86-2.82L116.86-2.82L116.86-2.82Q118.91-2.82 120.42-4.77L120.42-4.77L120.42-4.77Q121.92-6.72 122.50-10.18L122.50-10.18L125.89-28.93L125.89-28.93Q124.54-30.08 122.98-30.08L122.98-30.08L122.98-30.08Q121.41-30.08 120.48-29.57L120.48-29.57L120.48-29.57Q119.55-29.06 118.82-27.90ZM169.79 1.28L169.79 1.28L169.79 1.28Q162.05 1.28 162.05-4.74L162.05-4.74L162.05-4.74Q162.11-6.40 162.62-9.22L162.62-9.22L163.78-15.10L163.78-15.10Q165.50-23.42 165.50-25.28L165.50-25.28L165.50-25.28Q165.50-28.99 163.33-28.99L163.33-28.99L163.33-28.99Q159.68-28.99 157.76-19.46L157.76-19.46L153.98 0L141.12 1.28L147.78-32.70L158.27-33.92L157.25-27.65L157.25-27.65Q160.26-33.92 169.47-33.92L169.47-33.92L169.47-33.92Q173.95-33.92 175.84-32.03L175.84-32.03L175.84-32.03Q177.73-30.14 177.73-25.92L177.73-25.92L177.73-25.92Q177.73-21.95 175.68-12.67L175.68-12.67L175.68-12.67Q174.72-8.51 174.72-6.94L174.72-6.94L174.72-6.94Q174.72-5.38 175.58-4.48L175.58-4.48L175.58-4.48Q176.45-3.58 177.73-3.46L177.73-3.46L177.73-3.46Q177.09-1.28 174.88 0L174.88 0L174.88 0Q172.67 1.28 169.79 1.28ZM198.21-3.52L198.21-3.52L198.21-3.52Q196.22 1.28 189.89 1.28L189.89 1.28L189.89 1.28Q186.62 1.28 184.58-0.96L184.58-0.96L184.58-0.96Q182.85-2.94 182.85-4.93L182.85-4.93L182.85-4.93Q182.85-10.11 185.22-20.22L185.22-20.22L187.58-32.64L200.58-33.92L196.67-13.70L196.67-13.70Q195.58-8.96 195.58-7.30L195.58-7.30L195.58-7.30Q195.58-3.65 198.21-3.52ZM188.74-41.54L188.74-41.54L188.74-41.54Q188.74-44.03 190.82-45.38L190.82-45.38L190.82-45.38Q192.90-46.72 195.90-46.72L195.90-46.72L195.90-46.72Q198.91-46.72 200.74-45.38L200.74-45.38L200.74-45.38Q202.56-44.03 202.56-41.54L202.56-41.54L202.56-41.54Q202.56-39.04 200.54-37.76L200.54-37.76L200.54-37.76Q198.53-36.48 195.52-36.48L195.52-36.48L195.52-36.48Q192.51-36.48 190.62-37.76L190.62-37.76L190.62-37.76Q188.74-39.04 188.74-41.54ZM235.07-26.62L235.07-26.62L235.07-26.62Q235.07-23.94 232.83-22.27L232.83-22.27L232.83-22.27Q230.59-20.61 226.94-20.61L226.94-20.61L226.94-20.61Q225.41-20.61 224.51-21.06L224.51-21.06L224.51-21.06Q225.22-22.72 225.44-24.80L225.44-24.80L225.44-24.80Q225.66-26.88 225.66-27.46L225.66-27.46L225.66-27.46Q225.66-30.14 223.81-30.14L223.81-30.14L223.81-30.14Q222.53-30.14 221.09-28.54L221.09-28.54L221.09-28.54Q219.65-26.94 218.43-24.45L218.43-24.45L218.43-24.45Q215.74-18.69 215.74-12.86L215.74-12.86L215.74-12.86Q215.74-9.66 216.96-8.22L216.96-8.22L216.96-8.22Q218.18-6.78 220.86-6.78L220.86-6.78L220.86-6.78Q224.58-6.78 227.52-9.86L227.52-9.86L227.52-9.86Q228.35-10.82 228.80-11.90L228.80-11.90L228.80-11.90Q231.23-10.62 231.23-7.10L231.23-7.10L231.23-7.10Q231.23-3.52 227.26-1.15L227.26-1.15L227.26-1.15Q223.17 1.28 216.64 1.28L216.64 1.28L216.64 1.28Q203.65 1.28 203.65-12.48L203.65-12.48L203.65-12.48Q203.65-22.53 209.34-28.29L209.34-28.29L209.34-28.29Q214.85-33.92 224.96-33.92L224.96-33.92L224.96-33.92Q235.07-33.92 235.07-26.62ZM239.58-1.92L239.58-1.92L239.58-1.92Q238.08-3.58 237.41-6.21L237.41-6.21L237.41-6.21Q236.74-8.83 236.74-13.12L236.74-13.12L236.74-13.12Q236.74-17.41 238.21-21.31L238.21-21.31L238.21-21.31Q239.68-25.22 242.37-28.03L242.37-28.03L242.37-28.03Q247.87-33.92 256.96-33.92L256.96-33.92L256.96-33.92Q260.22-33.92 262.59-32.83L262.59-32.83L273.54-33.92L268.80-8.96L268.80-8.96Q268.61-8.19 268.61-6.78L268.61-6.78L268.61-6.78Q268.61-5.38 269.47-4.48L269.47-4.48L269.47-4.48Q270.34-3.58 271.62-3.46L271.62-3.46L271.62-3.46Q270.98-1.28 268.64 0L268.64 0L268.64 0Q266.30 1.28 263.68 1.28L263.68 1.28L263.68 1.28Q261.06 1.28 259.30 0.29L259.30 0.29L259.30 0.29Q257.54-0.70 257.02-2.37L257.02-2.37L257.02-2.37Q256-0.77 253.82 0.26L253.82 0.26L253.82 0.26Q251.65 1.28 248.74 1.28L248.74 1.28L248.74 1.28Q245.82 1.28 243.46 0.51L243.46 0.51L243.46 0.51Q241.09-0.26 239.58-1.92ZM253.09-27.90L253.09-27.90L253.09-27.90Q252.35-26.75 251.71-24.80L251.71-24.80L251.71-24.80Q251.07-22.85 250.02-17.63L250.02-17.63L250.02-17.63Q248.96-12.42 248.96-8.70L248.96-8.70L248.96-8.70Q248.96-4.99 249.54-3.90L249.54-3.90L249.54-3.90Q250.11-2.82 251.14-2.82L251.14-2.82L251.14-2.82Q253.18-2.82 254.69-4.77L254.69-4.77L254.69-4.77Q256.19-6.72 256.77-10.18L256.77-10.18L260.16-28.93L260.16-28.93Q258.82-30.08 257.25-30.08L257.25-30.08L257.25-30.08Q255.68-30.08 254.75-29.57L254.75-29.57L254.75-29.57Q253.82-29.06 253.09-27.90ZM292.29-3.52L292.29-3.52L292.29-3.52Q290.30 1.28 283.97 1.28L283.97 1.28L283.97 1.28Q280.77 1.28 278.72-0.96L278.72-0.96L278.72-0.96Q277.06-2.82 277.06-4.93L277.06-4.93L277.06-4.93Q277.06-9.73 279.30-20.22L279.30-20.22L283.97-44.80L296.96-46.08L290.75-13.70L290.75-13.70Q289.66-8.96 289.66-7.30L289.66-7.30L289.66-7.30Q289.66-3.65 292.29-3.52Z" fill="#3b590e"></path></g></g><style>text {
  font-size: 64px;
  font-family: Arial Black;
  dominant-baseline: central;
  text-anchor: middle;
}</style></svg>