<svg width="1045.175px" height="284px" xmlns="http://www.w3.org/2000/svg" viewBox="-272.5875 -67 1045.175 284" style="background: rgba(0, 0, 0, 0);" preserveAspectRatio="xMidYMid"><defs><linearGradient id="editing-gradient-gradient" x1="0" x2="1" y1="0.5" y2="0.5" gradientUnits="objectBoundingBox"><stop offset="0" stop-color="#f0f"></stop><stop offset="1" stop-color="#0ff"></stop></linearGradient></defs><g><g transform="translate(-128.0649857521057, 137.24999809265137)"><path d="M70.05-53.45L103.58-56.44L103.58-56.44Q91.63-30.21 91.63 0.17L91.63 0.17L91.63 0.17Q87.15 3.32 80.59 3.32L80.59 3.32L80.59 3.32Q74.04 3.32 69.89 0.25L69.89 0.25L69.89 0.25Q65.74-2.82 64.91-5.98L64.91-5.98L64.91-5.98Q60.76-1.66 54.03 0.83L54.03 0.83L54.03 0.83Q47.31 3.32 40.17 3.32L40.17 3.32L40.17 3.32Q33.03 3.32 26.81 1.00L26.81 1.00L26.81 1.00Q20.58-1.33 15.77-6.47L15.77-6.47L15.77-6.47Q5.15-17.76 5.15-39.18L5.15-39.18L5.15-39.18Q5.15-72.38 22.91-92.30L22.91-92.30L22.91-92.30Q41.17-112.88 73.54-112.88L73.54-112.88L73.54-112.88Q95.95-112.88 103.92-101.26L103.92-101.26L103.92-101.26Q106.41-97.61 106.41-93.21L106.41-93.21L106.41-93.21Q106.41-88.81 104.50-85.08L104.50-85.08L104.50-85.08Q102.59-81.34 99.60-78.35L99.60-78.35L99.60-78.35Q92.46-71.71 83.66-71.71L83.66-71.71L83.66-71.71Q80.18-71.71 76.86-72.87L76.86-72.87L76.86-72.87Q77.52-77.85 77.52-83.66L77.52-83.66L77.52-83.66Q77.52-89.47 77.11-92.13L77.11-92.13L77.11-92.13Q76.69-94.79 75.70-96.94L75.70-96.94L75.70-96.94Q73.54-101.43 68.81-101.43L68.81-101.43L68.81-101.43Q64.08-101.43 58.85-96.36L58.85-96.36L58.85-96.36Q53.62-91.30 49.47-83L49.47-83L49.47-83Q40.34-64.41 40.34-42.00L40.34-42.00L40.34-42.00Q40.34-31.71 44.32-24.40L44.32-24.40L44.32-24.40Q48.64-16.43 56.27-16.43L56.27-16.43L56.27-16.43Q58.93-16.43 61.34-17.76L61.34-17.76L61.34-17.76Q63.74-19.09 64.74-20.09L64.74-20.09L70.05-53.45ZM163.68-46.65L163.68-46.65L163.68-46.65Q169.65-57.27 169.65-68.06L169.65-68.06L169.65-68.06Q169.65-75.20 164.51-75.20L164.51-75.20L164.51-75.20Q160.52-75.20 156.37-68.39L156.37-68.39L156.37-68.39Q152.06-61.59 150.73-52.79L150.73-52.79L142.10 0L107.73 3.32L124.67-84.66L152.06-87.98L149.07-71.21L149.07-71.21Q157.20-87.98 175.46-87.98L175.46-87.98L175.46-87.98Q185.09-87.98 190.32-83L190.32-83L190.32-83Q195.55-78.02 195.55-67.81L195.55-67.81L195.55-67.81Q195.55-57.60 188.82-51.13L188.82-51.13L188.82-51.13Q182.10-44.65 170.65-44.65L170.65-44.65L170.65-44.65Q165.67-44.65 163.68-46.65ZM205.43-4.98L205.43-4.98L205.43-4.98Q201.52-9.30 199.78-16.10L199.78-16.10L199.78-16.10Q198.04-22.91 198.04-34.03L198.04-34.03L198.04-34.03Q198.04-45.15 201.86-55.28L201.86-55.28L201.86-55.28Q205.67-65.40 212.65-72.71L212.65-72.71L212.65-72.71Q226.92-87.98 250.49-87.98L250.49-87.98L250.49-87.98Q258.96-87.98 265.10-85.16L265.10-85.16L293.49-87.98L281.20-23.24L281.20-23.24Q280.71-21.25 280.71-17.60L280.71-17.60L280.71-17.60Q280.71-13.94 282.95-11.62L282.95-11.62L282.95-11.62Q285.19-9.30 288.51-8.96L288.51-8.96L288.51-8.96Q286.85-3.32 280.79 0L280.79 0L280.79 0Q274.73 3.32 267.92 3.32L267.92 3.32L267.92 3.32Q261.12 3.32 256.55 0.75L256.55 0.75L256.55 0.75Q251.99-1.83 250.66-6.14L250.66-6.14L250.66-6.14Q248.00-1.99 242.36 0.66L242.36 0.66L242.36 0.66Q236.72 3.32 229.16 3.32L229.16 3.32L229.16 3.32Q221.61 3.32 215.47 1.33L215.47 1.33L215.47 1.33Q209.33-0.66 205.43-4.98ZM240.45-72.38L240.45-72.38L240.45-72.38Q238.54-69.39 236.88-64.33L236.88-64.33L236.88-64.33Q235.22-59.26 232.48-45.73L232.48-45.73L232.48-45.73Q229.74-32.20 229.74-22.58L229.74-22.58L229.74-22.58Q229.74-12.95 231.24-10.13L231.24-10.13L231.24-10.13Q232.73-7.30 235.39-7.30L235.39-7.30L235.39-7.30Q240.70-7.30 244.60-12.37L244.60-12.37L244.60-12.37Q248.50-17.43 250.00-26.39L250.00-26.39L258.79-75.03L258.79-75.03Q255.31-78.02 251.24-78.02L251.24-78.02L251.24-78.02Q247.17-78.02 244.77-76.69L244.77-76.69L244.77-76.69Q242.36-75.36 240.45-72.38ZM372.67 3.32L372.67 3.32L372.67 3.32Q352.58 3.32 352.58-12.28L352.58-12.28L352.58-12.28Q352.75-16.60 354.08-23.90L354.08-23.90L357.07-39.18L357.07-39.18Q361.55-60.76 361.55-65.57L361.55-65.57L361.55-65.57Q361.55-75.20 355.90-75.20L355.90-75.20L355.90-75.20Q346.44-75.20 341.46-50.46L341.46-50.46L331.67 0L298.30 3.32L315.57-84.83L342.79-87.98L340.13-71.71L340.13-71.71Q347.94-87.98 371.84-87.98L371.84-87.98L371.84-87.98Q383.46-87.98 388.36-83.08L388.36-83.08L388.36-83.08Q393.25-78.19 393.25-67.23L393.25-67.23L393.25-67.23Q393.25-56.94 387.94-32.87L387.94-32.87L387.94-32.87Q385.45-22.08 385.45-18.01L385.45-18.01L385.45-18.01Q385.45-13.94 387.69-11.62L387.69-11.62L387.69-11.62Q389.93-9.30 393.25-8.96L393.25-8.96L393.25-8.96Q391.59-3.32 385.87 0L385.87 0L385.87 0Q380.14 3.32 372.67 3.32ZM458.82-87.98L458.82-87.98L458.82-87.98Q464.80-87.98 469.45-86.65L469.45-86.65L469.45-86.65Q469.61-87.32 469.95-89.14L469.95-89.14L470.78-94.29L470.78-94.29Q471.44-97.61 472.44-103.09L472.44-103.09L475.09-116.20L508.13-119.52L489.70-23.24L489.70-23.24Q489.53-22.24 489.53-20.58L489.53-20.58L489.53-17.93L489.53-17.93Q489.53-14.28 491.36-11.54L491.36-11.54L491.36-11.54Q493.19-8.80 496.17-8.80L496.17-8.80L496.17-8.80Q492.85-1.00 482.73 2.32L482.73 2.32L482.73 2.32Q479.24 3.32 474.35 3.32L474.35 3.32L474.35 3.32Q469.45 3.32 464.97 0.75L464.97 0.75L464.97 0.75Q460.48-1.83 459.16-6.14L459.16-6.14L459.16-6.14Q456.50-1.83 451.19 0.75L451.19 0.75L451.19 0.75Q445.88 3.32 438.16 3.32L438.16 3.32L438.16 3.32Q430.44 3.32 424.05 1.33L424.05 1.33L424.05 1.33Q417.66-0.66 413.67-4.98L413.67-4.98L413.67-4.98Q406.37-13.45 406.37-32.70L406.37-32.70L406.37-32.70Q406.37-57.60 420.98-72.71L420.98-72.71L420.98-72.71Q435.58-87.98 458.82-87.98ZM457.66-78.02L457.66-78.02L457.66-78.02Q451.52-78.02 448.20-71.38L448.20-71.38L448.20-71.38Q444.88-64.74 441.48-48.31L441.48-48.31L441.48-48.31Q438.07-31.87 438.07-17.10L438.07-17.10L438.07-17.10Q438.07-6.97 444.05-6.97L444.05-6.97L444.05-6.97Q449.36-6.97 453.10-12.28L453.10-12.28L453.10-12.28Q456.83-17.60 458.33-26.39L458.33-26.39L467.29-75.03L467.29-75.03Q463.80-78.02 457.66-78.02ZM550.12-9.13L550.12-9.13L550.12-9.13Q544.98 3.32 528.54 3.32L528.54 3.32L528.54 3.32Q520.08 3.32 514.77-2.49L514.77-2.49L514.77-2.49Q510.28-7.64 510.28-12.78L510.28-12.78L510.28-12.78Q510.28-26.23 516.43-52.46L516.43-52.46L522.57-84.66L556.27-87.98L546.14-35.52L546.14-35.52Q543.32-23.24 543.32-18.92L543.32-18.92L543.32-18.92Q543.32-9.46 550.12-9.13ZM525.56-107.73L525.56-107.73L525.56-107.73Q525.56-114.21 530.95-117.69L530.95-117.69L530.95-117.69Q536.35-121.18 544.15-121.18L544.15-121.18L544.15-121.18Q551.95-121.18 556.68-117.69L556.68-117.69L556.68-117.69Q561.41-114.21 561.41-107.73L561.41-107.73L561.41-107.73Q561.41-101.26 556.18-97.94L556.18-97.94L556.18-97.94Q550.95-94.62 543.15-94.62L543.15-94.62L543.15-94.62Q535.35-94.62 530.45-97.94L530.45-97.94L530.45-97.94Q525.56-101.26 525.56-107.73ZM634.45 3.32L634.45 3.32L634.45 3.32Q614.37 3.32 614.37-12.28L614.37-12.28L614.37-12.28Q614.53-16.60 615.86-23.90L615.86-23.90L618.85-39.18L618.85-39.18Q623.33-60.76 623.33-65.57L623.33-65.57L623.33-65.57Q623.33-75.20 617.69-75.20L617.69-75.20L617.69-75.20Q608.22-75.20 603.24-50.46L603.24-50.46L593.45 0L560.08 3.32L577.35-84.83L604.57-87.98L601.92-71.71L601.92-71.71Q609.72-87.98 633.62-87.98L633.62-87.98L633.62-87.98Q645.24-87.98 650.14-83.08L650.14-83.08L650.14-83.08Q655.04-78.19 655.04-67.23L655.04-67.23L655.04-67.23Q655.04-56.94 649.72-32.87L649.72-32.87L649.72-32.87Q647.23-22.08 647.23-18.01L647.23-18.01L647.23-18.01Q647.23-13.94 649.48-11.62L649.48-11.62L649.48-11.62Q651.72-9.30 655.04-8.96L655.04-8.96L655.04-8.96Q653.38-3.32 647.65 0L647.65 0L647.65 0Q641.92 3.32 634.45 3.32ZM735.55-28.05L735.55-28.05L735.55-28.05Q739.70-25.23 739.70-19.01L739.70-19.01L739.70-19.01Q739.70-12.78 736.54-8.80L736.54-8.80L736.54-8.80Q733.39-4.81 728.24-2.16L728.24-2.16L728.24-2.16Q717.62 3.32 706.16 3.32L706.16 3.32L706.16 3.32Q694.71 3.32 687.99 0.83L687.99 0.83L687.99 0.83Q681.26-1.66 676.78-6.31L676.78-6.31L676.78-6.31Q667.98-15.11 667.98-31.21L667.98-31.21L667.98-31.21Q667.98-56.27 681.60-71.55L681.60-71.55L681.60-71.55Q696.20-87.98 721.60-87.98L721.60-87.98L721.60-87.98Q737.37-87.98 745.17-81.34L745.17-81.34L745.17-81.34Q750.98-76.36 750.98-68.23L750.98-68.23L750.98-68.23Q750.98-39.01 700.52-39.01L700.52-39.01L700.52-39.01Q699.86-34.69 699.86-31.04L699.86-31.04L699.86-31.04Q699.86-23.41 703.26-20.50L703.26-20.50L703.26-20.50Q706.66-17.60 712.97-17.60L712.97-17.60L712.97-17.60Q719.28-17.60 726.00-20.50L726.00-20.50L726.00-20.50Q732.72-23.41 735.55-28.05ZM701.68-46.15L701.68-46.15L701.68-46.15Q713.47-46.15 720.27-53.45L720.27-53.45L720.27-53.45Q727.08-60.42 727.08-71.55L727.08-71.55L727.08-71.55Q727.08-75.36 725.67-77.44L725.67-77.44L725.67-77.44Q724.26-79.51 721.44-79.51L721.44-79.51L721.44-79.51Q718.61-79.51 716.21-78.44L716.21-78.44L716.21-78.44Q713.80-77.36 711.31-73.70L711.31-73.70L711.31-73.70Q705.17-65.40 701.68-46.15Z" fill="url(#editing-gradient-gradient)"></path></g></g><style>text {
  font-size: 64px;
  font-family: Arial Black;
  dominant-baseline: central;
  text-anchor: middle;
}</style></svg>